<svg width="200" height="200" viewBox="0 0 200 200" fill="none" xmlns="http://www.w3.org/2000/svg">
  <path d="M100 40C66.8629 40 40 66.8629 40 100C40 133.137 66.8629 160 100 160C133.137 160 160 133.137 160 100C160 66.8629 133.137 40 100 40Z" fill="#F3F4F6"/>
  <path d="M100 40C66.8629 40 40 66.8629 40 100C40 133.137 66.8629 160 100 160C133.137 160 160 133.137 160 100C160 66.8629 133.137 40 100 40Z" stroke="#D1D5DB" stroke-width="2" stroke-dasharray="4 4"/>
  <path d="M100 120V120.01M100 70C111.046 70 120 78.9543 120 90C120 101.046 111.046 110 100 110V110" stroke="#9CA3AF" stroke-width="8" stroke-linecap="round"/>
</svg>
